<?xml version="1.0" encoding="UTF-8"?>
<svg version="1.1" viewBox="0 0 211 211" xmlns="http://www.w3.org/2000/svg">
<title>missing-cover</title>
<desc>Created with Sketch.</desc>
<g fill="none" fill-rule="evenodd">
<rect width="211" height="211" fill="#E8E8E8"/>
<g transform="translate(77.408 82.402)" fill="#848484" fill-rule="nonzero" opacity=".55">
<path d="m51.314 0.12485h-46.445c-2.6219 0-4.6195 2.1225-4.6195 4.7444v37.705c0 2.6219 2.1225 4.7444 4.6195 4.7444h46.57c2.6219 0 4.6195-2.1225 4.6195-4.7444v-37.705c0-2.6219-2.1225-4.7444-4.7444-4.7444zm0 4.7444v26.469l-7.4911-9.1142c-0.74911-0.99882-2.2473-1.1237-3.2462-0.37456l-7.616 5.868-12.485-12.735c-0.87396-0.87396-2.2473-0.87396-3.2462-0.12485l-12.36 10.737v-20.85l46.445 0.12485zm-46.445 37.705v-10.737l13.859-11.986 12.36 12.61c0.87396 0.87396 2.1225 0.87396 3.1213 0.2497l7.4911-5.7432 9.6136 11.736v3.8704h-46.445z"/>
<path d="m42.075 17.729c2.6219 0 4.6195-2.1225 4.6195-4.7444s-2.1225-4.7444-4.6195-4.7444c-2.6219 0-4.6195 2.1225-4.6195 4.7444-0.12485 2.6219 1.9976 4.7444 4.6195 4.7444z"/>
</g>
</g>
</svg>
